<?xml version="1.0" encoding="UTF-8"?>
<svg width="16px" height="16px" viewBox="0 0 16 16" version="1.1" xmlns="http://www.w3.org/2000/svg" xmlns:xlink="http://www.w3.org/1999/xlink">
    <!-- Generator: Sketch 53 (72520) - https://sketchapp.com -->
    <title>分组</title>
    <desc>Created with Sketch.</desc>
    <g id="页面-1" stroke="none" stroke-width="1" fill="none" fill-rule="evenodd">
        <g id="分组" fill-rule="nonzero">
            <polygon id="矩形" fill="#FFA600" opacity="0" points="0 0 11.5104167 0 16 0 16 16 0 16"></polygon>
            <path d="M13,14 L13,8.5 C13,5.73857625 10.7614237,3.5 8,3.5 C5.23857625,3.5 3,5.73857625 3,8.5 L3,14 L1.25,14 C1.11192881,14 1,14.1119288 1,14.25 L1,15.25 C1,15.3880712 1.11192881,15.5 1.25,15.5 L14.75,15.5 C14.8880712,15.5 15,15.3880712 15,15.25 L15,14.25 C15,14.1579525 14.3333333,14.0746192 13,14 Z" id="路径" fill="#FFCD2A"></path>
            <polygon id="路径" fill="#FFCD2A" points="7.25 0.5 8.75 0.5 8.75 2.5 7.25 2.5"></polygon>
            <polygon id="路径" fill="#FFCD2A" points="3.35140739 1.94743212 4.6504455 1.19743212 5.6504455 2.92948294 4.35140739 3.67948294"></polygon>
            <polygon id="路径" fill="#FFCD2A" points="0.695325078 5.14902803 1.44532508 3.84998992 3.17737589 4.84998992 2.42737589 6.14902803"></polygon>
            <polygon id="路径" fill="#FFCD2A" points="12.8225236 4.84939602 14.5545744 3.84939602 15.3045744 5.14843411 13.5725236 6.14843411"></polygon>
            <polygon id="路径" fill="#FFCD2A" points="10.3489899 2.92794287 11.3489899 1.19589206 12.648028 1.94589206 11.648028 3.67794287 10.3489899 2.92794287"></polygon>
        </g>
    </g>
</svg>