<?xml version="1.0" encoding="UTF-8"?>
<svg width="21px" height="22px" viewBox="0 0 21 22" version="1.1" xmlns="http://www.w3.org/2000/svg" xmlns:xlink="http://www.w3.org/1999/xlink">
    <!-- Generator: Sketch 53 (72520) - https://sketchapp.com -->
    <title>1 (4) - 副本</title>
    <desc>Created with Sketch.</desc>
    <g id="页面-1" stroke="none" stroke-width="1" fill="none" fill-rule="evenodd">
        <g id="1-(4)---副本" transform="translate(-1.000000, -1.000000)" fill-rule="nonzero">
            <g id="分组">
                <rect id="矩形" fill="#FFFFFF" opacity="0" x="0" y="0" width="23" height="24"></rect>
                <path d="M21.9013882,4.61054545 C21.8990068,4.47312122 21.8968579,4.35451514 21.8968579,4.25448485 L18.1408882,4.25448485 C18.213373,2.57612121 18.1647013,1.15151515 18.1647013,1.15151515 L11.5402947,1.15151515 C11.5246419,1.15151515 11.5092215,1.15257577 11.4938882,1.15424243 C11.4784677,1.15257577 11.4630182,1.15151515 11.4473654,1.15151515 L4.80611542,1.15151515 C4.80611542,1.15151515 4.75741467,2.57612121 4.82989951,4.25448485 L1.10233133,4.25448485 L1.09155734,4.25448485 L1.09155734,5.25081818 L1.09155734,5.26739393 L1.09155734,5.8061212 L1.09904977,5.8061212 C1.13671516,7.07136363 1.33047276,8.76360605 2.13677956,10.4959697 C2.82059395,11.9654242 3.80535404,13.1948485 5.063849,14.1500909 C6.10567348,14.9410606 7.29595252,15.5107273 8.6046293,15.8512121 C9.36031869,16.6927879 10.1056407,17.1568485 10.7562328,17.3433939 L10.7562328,19.0706667 C10.6633326,19.5838182 10.0991937,21.3212727 6.16703587,21.3212727 L5.55219245,21.3212727 L5.55219245,22.8727576 L17.4470839,22.8727576 L17.4470839,21.3212727 L16.8347379,21.3212727 C12.2216117,21.3212727 12.2430725,18.9292121 12.2430725,18.9292121 L12.2430725,17.3431515 C12.8935195,17.1568485 13.6244084,16.6947273 14.3762935,15.8573636 C15.6944665,15.5177576 16.8887531,14.9457879 17.9370245,14.1500909 C19.1952871,13.1947273 20.1794955,11.965303 20.8633099,10.4958485 C21.9636798,8.13175758 21.922849,5.84115152 21.9013882,4.61054545 L21.9013882,4.61054545 Z M3.47342224,9.81793938 C2.80151442,8.37406059 2.62570381,6.92106059 2.58710911,5.8061212 L4.93290584,5.8061212 C4.97333009,6.23827273 5.02435407,6.66430303 5.08888185,7.06569696 C5.48447023,9.52427271 6.0280485,11.6956667 7.0568629,13.6116364 C5.48455736,12.7805455 4.24981745,11.4860303 3.47342224,9.81793938 L3.47342224,9.81793938 Z M19.5257669,9.81793938 C18.7448414,11.4959697 17.4998503,12.7959394 15.9142152,13.6264242 C16.9463982,11.7069091 17.4854462,9.53066667 17.882051,7.06569696 C17.9466079,6.66430303 17.9976318,6.23827273 18.038027,5.8061212 L20.4121962,5.8061212 C20.3734854,6.92106061 20.1977619,8.37406062 19.5257669,9.81793938 L19.5257669,9.81793938 Z M9.33972907,10.736 C9.84024042,11.1400303 10.4052505,11.3420606 11.0349046,11.3420606 C11.5385233,11.3420606 11.9375094,11.2131818 12.231892,10.9552727 C12.5262164,10.6974546 12.6733932,10.351697 12.6733932,9.91809091 C12.6733932,8.95236363 12.0107202,8.46948485 10.6854614,8.46948485 L10.0763389,8.46948485 L10.0763389,7.67127272 L10.657147,7.67127272 C11.8312796,7.67127272 12.4183894,7.2179697 12.4183894,6.31136363 C12.4183894,5.47372725 11.9698023,5.05493939 11.0726571,5.05493939 C10.5595132,5.05493939 10.0763099,5.23563635 9.62301825,5.59693938 L9.62301825,4.68539393 C10.1014879,4.39636362 10.6602253,4.25178788 11.2993175,4.25178788 C11.9226117,4.25178788 12.423094,4.42175756 12.8008516,4.76175757 C13.1786092,5.10172727 13.3674879,5.54269697 13.3674879,6.08469696 C13.3674879,7.08330302 12.879522,7.72545455 11.9037354,8.01124242 L11.9037354,8.03093939 C12.4325902,8.0900606 12.8504816,8.28469697 13.1573806,8.61481819 C13.4643087,8.94493941 13.6177872,9.35636365 13.6177872,9.84906061 C13.6177872,10.5356364 13.3808756,11.0890909 12.9071395,11.5095152 C12.4333453,11.93 11.8029652,12.1402121 11.0160283,12.1402121 C10.3234437,12.1402121 9.76470638,12.0055758 9.33972909,11.7361818 L9.33972907,10.736 Z" id="形状" fill="#B6FFC6"></path>
            </g>
        </g>
    </g>
</svg>