<?xml version="1.0" encoding="UTF-8"?>
<svg width="21px" height="22px" viewBox="0 0 21 22" version="1.1" xmlns="http://www.w3.org/2000/svg" xmlns:xlink="http://www.w3.org/1999/xlink">
    <!-- Generator: Sketch 53 (72520) - https://sketchapp.com -->
    <title>1 (3)</title>
    <desc>Created with Sketch.</desc>
    <g id="页面-1" stroke="none" stroke-width="1" fill="none" fill-rule="evenodd">
        <g id="1-(3)" transform="translate(-1.000000, -1.000000)" fill-rule="nonzero">
            <g id="分组">
                <rect id="矩形" fill="#FFFFFF" opacity="0" x="0" y="0" width="23" height="24"></rect>
                <path d="M21.9013882,4.61054545 C21.8990068,4.47312122 21.8968579,4.35451514 21.8968579,4.25448485 L18.1408882,4.25448485 C18.213373,2.57612121 18.1647013,1.15151515 18.1647013,1.15151515 L11.5402947,1.15151515 C11.5246419,1.15151515 11.5092215,1.15257577 11.4938882,1.15424243 C11.4784677,1.15257577 11.4630182,1.15151515 11.4473654,1.15151515 L4.80611542,1.15151515 C4.80611542,1.15151515 4.75741467,2.57612121 4.82989951,4.25448485 L1.10233133,4.25448485 L1.09155734,4.25448485 L1.09155734,5.25081818 L1.09155734,5.26739393 L1.09155734,5.8061212 L1.09904977,5.8061212 C1.13671516,7.07136363 1.33047276,8.76360605 2.13677956,10.4959697 C2.82059395,11.9654242 3.80535404,13.1948485 5.063849,14.1500909 C6.10567348,14.9410606 7.29595252,15.5107273 8.6046293,15.8512121 C9.36031869,16.6927879 10.1056407,17.1568485 10.7562328,17.3433939 L10.7562328,19.0706667 C10.6633326,19.5838182 10.0991937,21.3212727 6.16703587,21.3212727 L5.55219245,21.3212727 L5.55219245,22.8727576 L17.4470839,22.8727576 L17.4470839,21.3212727 L16.8347379,21.3212727 C12.2216117,21.3212727 12.2430725,18.9292121 12.2430725,18.9292121 L12.2430725,17.3431515 C12.8935195,17.1568485 13.6244084,16.6947273 14.3762935,15.8573636 C15.6944665,15.5177576 16.8887531,14.9457879 17.9370245,14.1500909 C19.1952871,13.1947273 20.1794955,11.965303 20.8633099,10.4958485 C21.9636798,8.13175758 21.922849,5.84115152 21.9013882,4.61054545 L21.9013882,4.61054545 Z M3.47342224,9.81793938 C2.80151442,8.37406059 2.62570381,6.92106059 2.58710911,5.8061212 L4.93290584,5.8061212 C4.97333009,6.23827273 5.02435407,6.66430303 5.08888185,7.06569696 C5.48447023,9.52427271 6.0280485,11.6956667 7.0568629,13.6116364 C5.48455736,12.7805455 4.24981745,11.4860303 3.47342224,9.81793938 L3.47342224,9.81793938 Z M19.5257669,9.81793938 C18.7448414,11.4959697 17.4998503,12.7959394 15.9142152,13.6264242 C16.9463982,11.7069091 17.4854462,9.53066667 17.882051,7.06569696 C17.9466079,6.66430303 17.9976318,6.23827273 18.038027,5.8061212 L20.4121962,5.8061212 C20.3734854,6.92106061 20.1977619,8.37406062 19.5257669,9.81793938 L19.5257669,9.81793938 Z M12.6922695,6.38033334 C12.6922695,5.96975759 12.5678894,5.64703031 12.3192455,5.41215152 C12.0705435,5.17733334 11.7320775,5.05984849 11.304022,5.05984849 C11.0018275,5.05984849 10.6964386,5.14036364 10.3879715,5.30127274 C10.0794172,5.46227273 9.79139446,5.69221214 9.52387425,5.99109091 L9.52387425,5.05490909 C9.76305103,4.79545453 10.0345788,4.59666666 10.3383995,4.45872727 C10.6421331,4.32075757 10.9986331,4.25178787 11.4078995,4.25178787 C12.0689753,4.25178787 12.6009083,4.43657576 13.003902,4.80609091 C13.4068086,5.17563637 13.60832,5.67575759 13.60832,6.30642424 C13.60832,6.8681212 13.484724,7.35430303 13.2376482,7.76487879 C12.9904854,8.17551516 12.5678894,8.5959697 11.9698023,9.02624243 C11.3590826,9.46645455 10.9506293,9.78178788 10.7445005,9.97227274 C10.5382556,10.1628182 10.3942442,10.3451212 10.3124374,10.5191818 C10.2305434,10.6933334 10.1896546,10.9051818 10.1896546,11.1547879 L13.8255131,11.1547879 L13.8255132,12.0121212 L9.22638437,12.0121212 L9.22638437,11.6327273 C9.22638437,11.1926061 9.28379724,10.8189697 9.39873916,10.5117879 C9.51362299,10.204697 9.70328587,9.90575759 9.9677278,9.6150303 C10.2321407,9.32433333 10.6445435,8.97536365 11.2049071,8.568 C11.7778162,8.14757576 12.1689033,7.77887878 12.3782846,7.46184848 C12.5875788,7.1449091 12.6922695,6.78436364 12.6922695,6.38033334 Z" id="形状" fill="#F8FF8E"></path>
            </g>
        </g>
    </g>
</svg>