<?xml version="1.0" encoding="UTF-8"?>
<svg width="370px" height="23px" viewBox="0 0 370 23" version="1.1" xmlns="http://www.w3.org/2000/svg" xmlns:xlink="http://www.w3.org/1999/xlink">
    <!-- Generator: Sketch 53 (72520) - https://sketchapp.com -->
    <title>分组 4</title>
    <desc>Created with Sketch.</desc>
    <defs>
        <linearGradient x1="100%" y1="50%" x2="0%" y2="50%" id="linearGradient-1">
            <stop stop-color="#51BEFF" stop-opacity="0" offset="0%"></stop>
            <stop stop-color="#3EA5FF" offset="49.2637885%"></stop>
            <stop stop-color="#298AFF" stop-opacity="0" offset="100%"></stop>
        </linearGradient>
        <linearGradient x1="100%" y1="50%" x2="0%" y2="50%" id="linearGradient-2">
            <stop stop-color="#298AFF" stop-opacity="0.382621285" offset="0%"></stop>
            <stop stop-color="#298AFF" offset="100%"></stop>
        </linearGradient>
    </defs>
    <g id="页面-1" stroke="none" stroke-width="1" fill="none" fill-rule="evenodd">
        <g id="分组-4" transform="translate(0.000000, 1.000000)">
            <polyline id="路径" stroke="url(#linearGradient-1)" stroke-width="2" points="0 17 112.163555 17 123.428885 21 244.152583 21 252.22124 17 370 17"></polyline>
            <polyline id="路径" stroke="url(#linearGradient-1)" stroke-width="2" transform="translate(185.000000, 2.000000) scale(1, -1) translate(-185.000000, -2.000000) " points="0 0 112.163555 0 123.428885 4 244.152583 4 252.22124 0 370 0"></polyline>
            <g id="编组" transform="translate(70.000000, 9.000000)" fill="url(#linearGradient-2)">
                <path d="M6.38138848,-2.84217094e-13 L9.03704148,0 L2.655653,5 L3.01980663e-14,5 L6.38138848,-2.84217094e-13 Z M13.3813885,-2.84217094e-13 L16.0370415,0 L9.655653,5 L7,5 L13.3813885,-2.84217094e-13 Z M20.3813885,-2.84217094e-13 L23.0370415,0 L16.655653,5 L14,5 L20.3813885,-2.84217094e-13 Z M28.3813885,-2.84217094e-13 L31.0370415,0 L24.655653,5 L22,5 L28.3813885,-2.84217094e-13 Z" id="形状结合"></path>
                <path d="M203.381388,-2.84217094e-13 L206.037041,0 L199.655653,5 L197,5 L203.381388,-2.84217094e-13 Z M210.381388,-2.84217094e-13 L213.037041,0 L206.655653,5 L204,5 L210.381388,-2.84217094e-13 Z M217.381388,-2.84217094e-13 L220.037041,0 L213.655653,5 L211,5 L217.381388,-2.84217094e-13 Z M225.381388,-2.84217094e-13 L228.037041,0 L221.655653,5 L219,5 L225.381388,-2.84217094e-13 Z" id="形状结合" transform="translate(212.518521, 2.500000) scale(-1, 1) translate(-212.518521, -2.500000) "></path>
            </g>
        </g>
    </g>
</svg>